  0
SECTION
  2
HEADER
  9
$ACADVER
  1
AC1015
  9
$ACADMAINTVER
 70
     6
  9
$DWGCODEPAGE
  3
ANSI_1252
  9
$INSBASE
 10
0.0
 20
0.0
 30
0.0
  9
$EXTMIN
 10
-133.516133338
 20
-169.7450864902
 30
0.0
  9
$EXTMAX
 10
164.3963031785
 20
170.474844568
 30
0.0
  9
$LIMMIN
 10
0.0
 20
0.0
  9
$LIMMAX
 10
420.0
 20
297.0
  9
$ORTHOMODE
 70
     0
  9
$REGENMODE
 70
     1
  9
$FILLMODE
 70
     1
  9
$QTEXTMODE
 70
     0
  9
$MIRRTEXT
 70
     1
  9
$LTSCALE
 40
1.0
  9
$ATTMODE
 70
     1
  9
$TEXTSIZE
 40
3.5
  9
$TRACEWID
 40
1.0
  9
$TEXTSTYLE
  7
Standard
  9
$CLAYER
  8
0
  9
$CELTYPE
  6
ByLayer
  9
$CECOLOR
 62
   256
  9
$CELTSCALE
 40
1.0
  9
$DISPSILH
 70
     0
  9
$DIMSCALE
 40
1.0
  9
$DIMASZ
 40
3.302
  9
$DIMEXO
 40
0.0
  9
$DIMDLI
 40
3.75
  9
$DIMRND
 40
0.0
  9
$DIMDLE
 40
0.0
  9
$DIMEXE
 40
1.0
  9
$DIMTP
 40
0.0
  9
$DIMTM
 40
0.0
  9
$DIMTXT
 40
3.5
  9
$DIMCEN
 40
2.5
  9
$DIMTSZ
 40
0.0
  9
$DIMTOL
 70
     0
  9
$DIMLIM
 70
     0
  9
$DIMTIH
 70
     1
  9
$DIMTOH
 70
     1
  9
$DIMSE1
 70
     0
  9
$DIMSE2
 70
     0
  9
$DIMTAD
 70
     1
  9
$DIMZIN
 70
     1
  9
$DIMBLK
  1

  9
$DIMASO
 70
     1
  9
$DIMSHO
 70
     1
  9
$DIMPOST
  1

  9
$DIMAPOST
  1

  9
$DIMALT
 70
     0
  9
$DIMALTD
 70
     3
  9
$DIMALTF
 40
0.0393700787
  9
$DIMLFAC
 40
1.0
  9
$DIMTOFL
 70
     1
  9
$DIMTVP
 40
0.0
  9
$DIMTIX
 70
     0
  9
$DIMSOXD
 70
     0
  9
$DIMSAH
 70
     0
  9
$DIMBLK1
  1

  9
$DIMBLK2
  1

  9
$DIMSTYLE
  2
ISO-25
  9
$DIMCLRD
 70
     0
  9
$DIMCLRE
 70
     0
  9
$DIMCLRT
 70
     0
  9
$DIMTFAC
 40
1.0
  9
$DIMGAP
 40
1.524
  9
$DIMJUST
 70
     0
  9
$DIMSD1
 70
     0
  9
$DIMSD2
 70
     0
  9
$DIMTOLJ
 70
     0
  9
$DIMTZIN
 70
     1
  9
$DIMALTZ
 70
     0
  9
$DIMALTTZ
 70
     0
  9
$DIMUPT
 70
     0
  9
$DIMDEC
 70
     2
  9
$DIMTDEC
 70
     2
  9
$DIMALTU
 70
     2
  9
$DIMALTTD
 70
     3
  9
$DIMTXSTY
  7
Standard
  9
$DIMAUNIT
 70
     0
  9
$DIMADEC
 70
     2
  9
$DIMALTRND
 40
0.0
  9
$DIMAZIN
 70
     0
  9
$DIMDSEP
 70
    44
  9
$DIMATFIT
 70
     3
  9
$DIMFRAC
 70
     0
  9
$DIMLDRBLK
  1

  9
$DIMLUNIT
 70
     2
  9
$DIMLWD
 70
    -2
  9
$DIMLWE
 70
    -2
  9
$DIMTMOVE
 70
     0
  9
$LUNITS
 70
     2
  9
$LUPREC
 70
     2
  9
$SKETCHINC
 40
1.0
  9
$FILLETRAD
 40
0.0
  9
$AUNITS
 70
     0
  9
$AUPREC
 70
     2
  9
$MENU
  1
.
  9
$ELEVATION
 40
0.0
  9
$PELEVATION
 40
0.0
  9
$THICKNESS
 40
0.0
  9
$LIMCHECK
 70
     0
  9
$CHAMFERA
 40
0.0
  9
$CHAMFERB
 40
0.0
  9
$CHAMFERC
 40
0.0
  9
$CHAMFERD
 40
0.0
  9
$SKPOLY
 70
     0
  9
$TDCREATE
 40
2460760.463036459
  9
$TDUCREATE
 40
2460760.713036459
  9
$TDUPDATE
 40
2460760.463074433
  9
$TDUUPDATE
 40
2460760.713074433
  9
$TDINDWG
 40
0.0000000116
  9
$TDUSRTIMER
 40
0.0000000116
  9
$USRTIMER
 70
     1
  9
$ANGBASE
 50
0.0
  9
$ANGDIR
 70
     0
  9
$PDMODE
 70
     0
  9
$PDSIZE
 40
-1.0
  9
$PLINEWID
 40
0.0
  9
$SPLFRAME
 70
     0
  9
$SPLINETYPE
 70
     6
  9
$SPLINESEGS
 70
     8
  9
$HANDSEED
  5
103
  9
$SURFTAB1
 70
     6
  9
$SURFTAB2
 70
     6
  9
$SURFTYPE
 70
     6
  9
$SURFU
 70
     6
  9
$SURFV
 70
     6
  9
$UCSBASE
  2

  9
$UCSNAME
  2

  9
$UCSORG
 10
0.0
 20
0.0
 30
0.0
  9
$UCSXDIR
 10
1.0
 20
0.0
 30
0.0
  9
$UCSYDIR
 10
0.0
 20
1.0
 30
0.0
  9
$UCSORTHOREF
  2

  9
$UCSORTHOVIEW
 70
     0
  9
$UCSORGTOP
 10
0.0
 20
0.0
 30
0.0
  9
$UCSORGBOTTOM
 10
0.0
 20
0.0
 30
0.0
  9
$UCSORGLEFT
 10
0.0
 20
0.0
 30
0.0
  9
$UCSORGRIGHT
 10
0.0
 20
0.0
 30
0.0
  9
$UCSORGFRONT
 10
0.0
 20
0.0
 30
0.0
  9
$UCSORGBACK
 10
0.0
 20
0.0
 30
0.0
  9
$PUCSBASE
  2

  9
$PUCSNAME
  2

  9
$PUCSORG
 10
0.0
 20
0.0
 30
0.0
  9
$PUCSXDIR
 10
1.0
 20
0.0
 30
0.0
  9
$PUCSYDIR
 10
0.0
 20
1.0
 30
0.0
  9
$PUCSORTHOREF
  2

  9
$PUCSORTHOVIEW
 70
     0
  9
$PUCSORGTOP
 10
0.0
 20
0.0
 30
0.0
  9
$PUCSORGBOTTOM
 10
0.0
 20
0.0
 30
0.0
  9
$PUCSORGLEFT
 10
0.0
 20
0.0
 30
0.0
  9
$PUCSORGRIGHT
 10
0.0
 20
0.0
 30
0.0
  9
$PUCSORGFRONT
 10
0.0
 20
0.0
 30
0.0
  9
$PUCSORGBACK
 10
0.0
 20
0.0
 30
0.0
  9
$USERI1
 70
     0
  9
$USERI2
 70
     0
  9
$USERI3
 70
     0
  9
$USERI4
 70
     0
  9
$USERI5
 70
     0
  9
$USERR1
 40
0.0
  9
$USERR2
 40
0.0
  9
$USERR3
 40
0.0
  9
$USERR4
 40
0.0
  9
$USERR5
 40
0.0
  9
$WORLDVIEW
 70
     1
  9
$SHADEDGE
 70
     3
  9
$SHADEDIF
 70
    70
  9
$TILEMODE
 70
     1
  9
$MAXACTVP
 70
    64
  9
$PINSBASE
 10
0.0
 20
0.0
 30
0.0
  9
$PLIMCHECK
 70
     0
  9
$PEXTMIN
 10
1.0000000000E+20
 20
1.0000000000E+20
 30
1.0000000000E+20
  9
$PEXTMAX
 10
-1.0000000000E+20
 20
-1.0000000000E+20
 30
-1.0000000000E+20
  9
$PLIMMIN
 10
0.0
 20
0.0
  9
$PLIMMAX
 10
420.0
 20
297.0
  9
$UNITMODE
 70
     0
  9
$VISRETAIN
 70
     1
  9
$PLINEGEN
 70
     0
  9
$PSLTSCALE
 70
     1
  9
$TREEDEPTH
 70
  3020
  9
$CMLSTYLE
  2
Standard
  9
$CMLJUST
 70
     0
  9
$CMLSCALE
 40
20.0
  9
$PROXYGRAPHICS
 70
     1
  9
$MEASUREMENT
 70
     1
  9
$CELWEIGHT
370
    -1
  9
$ENDCAPS
280
     0
  9
$JOINSTYLE
280
     0
  9
$LWDISPLAY
290
     1
  9
$INSUNITS
 70
     4
  9
$HYPERLINKBASE
  1

  9
$STYLESHEET
  1

  9
$XEDIT
290
     1
  9
$CEPSNTYPE
380
     0
  9
$PSTYLEMODE
290
     1
  9
$FINGERPRINTGUID
  2
{b73c4022-cb32-4ed7-9af7-04718b91e9cb}
  9
$VERSIONGUID
  2
{FAEB1C32-E019-11D5-929B-00C0DF256EC4}
  9
$EXTNAMES
290
     1
  9
$PSVPSCALE
 40
0.0
  9
$OLESTARTUP
290
     0
  0
ENDSEC
  0
SECTION
  2
CLASSES
  0
CLASS
  1
ACDBDICTIONARYWDFLT
  2
AcDbDictionaryWithDefault
  3
ObjectDBX Classes
 90
        0
280
     0
281
     0
  0
CLASS
  1
VISUALSTYLE
  2
AcDbVisualStyle
  3
ObjectDBX Classes
 90
     4095
280
     0
281
     0
  0
CLASS
  1
MATERIAL
  2
AcDbMaterial
  3
ObjectDBX Classes
 90
     1153
280
     0
281
     0
  0
CLASS
  1
SCALE
  2
AcDbScale
  3
ObjectDBX Classes
 90
     1153
280
     0
281
     0
  0
CLASS
  1
TABLESTYLE
  2
AcDbTableStyle
  3
ObjectDBX Classes
 90
     4095
280
     0
281
     0
  0
CLASS
  1
MLEADERSTYLE
  2
AcDbMLeaderStyle
  3
ACDB_MLEADERSTYLE_CLASS
 90
     4095
280
     0
281
     0
  0
CLASS
  1
SUN
  2
AcDbSun
  3
SCENEOE
 90
     1153
280
     0
281
     0
  0
CLASS
  1
ACDBPLACEHOLDER
  2
AcDbPlaceHolder
  3
ObjectDBX Classes
 90
        0
280
     0
281
     0
  0
CLASS
  1
LAYOUT
  2
AcDbLayout
  3
ObjectDBX Classes
 90
        0
280
     0
281
     0
  0
ENDSEC
  0
SECTION
  2
TABLES
  0
TABLE
  2
VPORT
  5
8
330
0
100
AcDbSymbolTable
 70
     1
  0
VPORT
  5
29
330
8
100
AcDbSymbolTableRecord
100
AcDbViewportTableRecord
  2
*Active
 70
     0
 10
0.0
 20
0.0
 11
1.0
 21
1.0
 12
15.4400849202
 22
0.3648790389
 13
0.0
 23
0.0
 14
10.0
 24
10.0
 15
10.0
 25
10.0
 16
0.0
 26
0.0
 36
1.0
 17
0.0
 27
0.0
 37
0.0
 40
347.0243296794
 41
0.8756466313
 42
50.0
 43
0.0
 44
0.0
 50
0.0
 51
0.0
 71
     0
 72
   100
 73
     1
 74
     3
 75
     0
 76
     0
 77
     0
 78
     0
281
     0
 65
     1
110
0.0
120
0.0
130
0.0
111
1.0
121
0.0
131
0.0
112
0.0
122
1.0
132
0.0
 79
     0
146
0.0
  0
ENDTAB
  0
TABLE
  2
LTYPE
  5
5
330
0
100
AcDbSymbolTable
 70
     6
  0
LTYPE
  5
14
330
5
100
AcDbSymbolTableRecord
100
AcDbLinetypeTableRecord
  2
ByBlock
 70
     0
  3

 72
    65
 73
     0
 40
0.0
  0
LTYPE
  5
15
330
5
100
AcDbSymbolTableRecord
100
AcDbLinetypeTableRecord
  2
ByLayer
 70
     0
  3

 72
    65
 73
     0
 40
0.0
  0
LTYPE
  5
16
330
5
100
AcDbSymbolTableRecord
100
AcDbLinetypeTableRecord
  2
Continuous
 70
     0
  3
Solid line
 72
    65
 73
     0
 40
0.0
  0
LTYPE
  5
5E
330
5
100
AcDbSymbolTableRecord
100
AcDbLinetypeTableRecord
  2
HIDDEN
 70
     0
  3
Hidden __ __ __ __ __ __ __ __ __ __ __ __ __ __
 72
    65
 73
     2
 40
1.905
 49
1.27
 74
     0
 49
-0.635
 74
     0
  0
LTYPE
  5
5F
330
5
100
AcDbSymbolTableRecord
100
AcDbLinetypeTableRecord
  2
PHANTOM
 70
     0
  3
Phantom ______  __  __  ______  __  __  ______
 72
    65
 73
     6
 40
12.7
 49
6.35
 74
     0
 49
-1.27
 74
     0
 49
1.27
 74
     0
 49
-1.27
 74
     0
 49
1.27
 74
     0
 49
-1.27
 74
     0
  0
LTYPE
  5
60
330
5
100
AcDbSymbolTableRecord
100
AcDbLinetypeTableRecord
  2
CENTER
 70
     0
  3
Center ____ _ ____ _ ____ _ ____ _ ____ _ ____
 72
    65
 73
     4
 40
10.16
 49
6.35
 74
     0
 49
-1.27
 74
     0
 49
1.27
 74
     0
 49
-1.27
 74
     0
  0
LTYPE
  5
61
330
5
100
AcDbSymbolTableRecord
100
AcDbLinetypeTableRecord
  2
CENTERX2
 70
     0
  3
Center (2x) ________  __  ________  __  _____
 72
    65
 73
     4
 40
20.32
 49
12.7
 74
     0
 49
-2.54
 74
     0
 49
2.54
 74
     0
 49
-2.54
 74
     0
  0
LTYPE
  5
62
330
5
100
AcDbSymbolTableRecord
100
AcDbLinetypeTableRecord
  2
DOT2
 70
     0
  3
Dot (.5x) ........................................
 72
    65
 73
     2
 40
0.635
 49
0.0
 74
     0
 49
-0.635
 74
     0
  0
ENDTAB
  0
TABLE
  2
LAYER
  5
2
330
0
100
AcDbSymbolTable
 70
     1
  0
LAYER
  5
10
330
2
100
AcDbSymbolTableRecord
100
AcDbLayerTableRecord
  2
0
 70
     0
 62
     7
  6
Continuous
370
    -3
390
F
  0
ENDTAB
  0
TABLE
  2
STYLE
  5
3
330
0
100
AcDbSymbolTable
 70
     2
  0
STYLE
  5
11
330
3
100
AcDbSymbolTableRecord
100
AcDbTextStyleTableRecord
  2
Standard
 70
     0
 40
0.0
 41
1.0
 50
0.0
 71
     0
 42
3.5
  3
txt
  4

  0
STYLE
  5
FF
330
3
100
AcDbSymbolTableRecord
100
AcDbTextStyleTableRecord
  2
SLDTEXTSTYLE0
 70
     0
 40
0.0
 41
0.7
 50
0.0
 71
     0
 42
3.5
  3
TXT
  4

  0
ENDTAB
  0
TABLE
  2
VIEW
  5
6
330
0
100
AcDbSymbolTable
 70
     0
  0
ENDTAB
  0
TABLE
  2
UCS
  5
7
330
0
100
AcDbSymbolTable
 70
     0
  0
ENDTAB
  0
TABLE
  2
APPID
  5
9
330
0
100
AcDbSymbolTable
 70
     1
  0
APPID
  5
12
330
9
100
AcDbSymbolTableRecord
100
AcDbRegAppTableRecord
  2
ACAD
 70
     0
  0
ENDTAB
  0
TABLE
  2
DIMSTYLE
  5
A
330
0
100
AcDbSymbolTable
 70
     1
100
AcDbDimStyleTable
  0
DIMSTYLE
105
27
330
A
100
AcDbSymbolTableRecord
100
AcDbDimStyleTableRecord
  2
ISO-25
 70
     0
 41
2.5
 42
0.625
 43
3.75
 44
1.25
 73
     0
 74
     0
 77
     1
 78
     8
140
2.5
141
2.5
143
0.0393700787
147
0.625
171
     3
172
     1
178
     0
271
     2
272
     2
274
     3
278
    44
283
     0
284
     8
340
11
  0
ENDTAB
  0
TABLE
  2
BLOCK_RECORD
  5
1
330
0
100
AcDbSymbolTable
 70
     1
  0
BLOCK_RECORD
  5
1F
330
1
100
AcDbSymbolTableRecord
100
AcDbBlockTableRecord
  2
*Model_Space
340
22
  0
BLOCK_RECORD
  5
1B
330
1
100
AcDbSymbolTableRecord
100
AcDbBlockTableRecord
  2
*Paper_Space
340
1E
  0
BLOCK_RECORD
  5
23
330
1
100
AcDbSymbolTableRecord
100
AcDbBlockTableRecord
  2
*Paper_Space0
340
26
  0
ENDTAB
  0
ENDSEC
  0
SECTION
  2
BLOCKS
  0
BLOCK
  5
20
330
1F
100
AcDbEntity
  8
0
100
AcDbBlockBegin
  2
*Model_Space
 70
     0
 10
0.0
 20
0.0
 30
0.0
  3
*Model_Space
  1

  0
ENDBLK
  5
21
330
1F
100
AcDbEntity
  8
0
100
AcDbBlockEnd
  0
BLOCK
  5
1C
330
1B
100
AcDbEntity
 67
     1
  8
0
100
AcDbBlockBegin
  2
*Paper_Space
 70
     0
 10
0.0
 20
0.0
 30
0.0
  3
*Paper_Space
  1

  0
ENDBLK
  5
1D
330
1B
100
AcDbEntity
 67
     1
  8
0
100
AcDbBlockEnd
  0
BLOCK
  5
24
330
23
100
AcDbEntity
  8
0
100
AcDbBlockBegin
  2
*Paper_Space0
 70
     0
 10
0.0
 20
0.0
 30
0.0
  3
*Paper_Space0
  1

  0
ENDBLK
  5
25
330
23
100
AcDbEntity
  8
0
100
AcDbBlockEnd
  0
ENDSEC
  0
SECTION
  2
ENTITIES
  0
LWPOLYLINE
  5
6F
330
1F
100
AcDbEntity
  8
0
  6
Continuous
 62
     7
370
    25
100
AcDbPolyline
 90
      143
 70
   128
 43
0.0
 10
164.3963031785
 20
-2.2220470693
 10
164.3006301208
 20
5.288184125
 10
163.9437802467
 20
12.7894919863
 10
163.3264521065
 20
20.2671923521
 10
162.4498541491
 20
27.7066472729
 10
161.3157023562
 20
35.0932936662
 10
159.9262168831
 20
42.4126718249
 10
158.2841177129
 20
49.6504537225
 10
156.3926193318
 20
56.792471061
 10
154.2554244368
 20
63.8247430062
 10
151.8767166872
 20
70.7335035554
 10
149.2611525152
 20
77.5052284855
 10
146.4138520104
 20
84.1266618269
 10
143.3403888972
 20
90.5848418129
 10
140.0467796242
 20
96.8671262528
 10
136.539471586
 20
102.96121728
 10
132.8253305029
 20
108.8551854249
 10
128.9116269804
 20
114.5374929683
 10
124.806022277
 20
119.9970165262
 10
120.5165533068
 20
125.2230688249
 10
116.0516169065
 20
130.2054196215
 10
111.419953399
 20
134.9343157306
 10
106.630629483
 20
139.4005001157
 10
101.693020485
 20
143.5952300114
 10
96.6167920064
 20
147.5102940367
 10
91.411881003
 20
151.1380282701
 10
86.0884763325
 20
154.4713312514
 10
80.6569988094
 20
157.5036778835
 10
75.128080806
 20
160.2291322055
 10
69.5125454391
 20
162.6423590126
 10
63.8213853827
 20
164.7386342998
 10
58.06574135
 20
166.51385451
 10
52.2568802844
 20
167.9645445662
 10
46.4061733043
 20
169.0878646746
 10
40.5250734433
 20
169.8816158831
 10
34.6250932306
 20
170.3442443866
 10
28.7177821545
 20
170.474844568
 10
22.8147040538
 20
170.2731607714
 10
16.9274144812
 20
169.7395878023
 10
11.0674380824
 20
168.8751701548
 10
5.2462460364
 20
167.681599967
 10
-0.5247664
 20
166.1612137086
 10
-6.2343021989
 20
164.3169876072
 10
-11.8711846759
 20
162.1525318219
 10
-17.4243793688
 20
159.6720833766
 10
-22.8830156383
 20
156.8804978656
 10
-28.2364079474
 20
153.7832399486
 10
-33.4740767794
 20
150.3863726534
 10
-38.5857691516
 20
146.6965455073
 10
-43.5614786861
 20
142.7209815202
 10
-48.3914651978
 20
138.4674630453
 10
-53.0662737613
 20
133.9443165448
 10
-57.5767532193
 20
129.1603962903
 10
-61.9140740966
 20
124.1250670304
 10
-66.0697458836
 20
118.8481856586
 10
-70.0356336579
 20
113.3400819179
 10
-73.8039740078
 20
107.6115381801
 10
-77.3673902302
 20
101.6737683386
 10
-80.7189067704
 20
95.5383958567
 10
-83.8519628774
 20
89.2174310141
 10
-86.7604254469
 20
82.7232473964
 10
-89.4386010266
 20
76.0685576729
 10
-91.8812469622
 20
69.2663887113
 10
-94.0835816595
 20
62.3300560767
 10
-96.041293945
 20
55.273137966
 10
-97.7505515048
 20
48.1094486279
 10
-99.2080083871
 20
40.8530113205
 10
-100.4108115516
 20
33.5180308607
 10
-101.3566064546
 20
26.1188658172
 10
-102.0435416581
 20
18.6700004031
 10
-102.4702724543
 20
11.1860161221
 10
-102.6359634975
 20
3.681563225
 10
-102.5402904398
 20
-3.8286679693
 10
-102.1834405657
 20
-11.3299758306
 10
-101.5661124255
 20
-18.8076761964
 10
-100.6895144681
 20
-26.2471311172
 10
-99.5553626752
 20
-33.6337775105
 10
-98.1658772021
 20
-40.9531556692
 10
-96.5237780319
 20
-48.1909375668
 10
-94.6322796508
 20
-55.3329549053
 10
-92.4950847558
 20
-62.3652268505
 10
-90.1163770062
 20
-69.2739873997
 10
-87.5008128342
 20
-76.0457123298
 10
-84.6535123294
 20
-82.6671456712
 10
-81.5800492163
 20
-89.1253256572
 10
-78.2864399432
 20
-95.4076100971
 10
-74.779131905
 20
-101.5017011243
 10
-71.0649908219
 20
-107.3956692692
 10
-67.1512872994
 20
-113.0779768126
 10
-63.0456825961
 20
-118.5375003705
 10
-58.7562136258
 20
-123.7635526692
 10
-54.2912772255
 20
-128.7459034658
 10
-49.659613718
 20
-133.4747995749
 10
-44.870289802
 20
-137.94098396
 10
-39.932680804
 20
-142.1357138557
 10
-34.8564523255
 20
-146.050777881
 10
-29.6515413221
 20
-149.6785121144
 10
-24.3281366515
 20
-153.0118150957
 10
-18.8966591284
 20
-156.0441617278
 10
-13.367741125
 20
-158.7696160498
 10
-7.7522057581
 20
-161.1828428569
 10
-2.0610457017
 20
-163.2791181441
 10
3.694598331
 20
-165.0543383543
 10
9.5034593965
 20
-166.5050284106
 10
15.3541663767
 20
-167.6283485189
 10
21.2352662376
 20
-168.4220997274
 10
27.1352464504
 20
-168.8847282309
 10
33.0425575265
 20
-169.0153284123
 10
38.9456356272
 20
-168.8136446157
 10
44.8329251998
 20
-168.2800716466
 10
50.6929015986
 20
-167.4156539991
 10
56.5140936446
 20
-166.2220838113
 10
62.285106081
 20
-164.7016975529
 10
67.9946418799
 20
-162.8574714515
 10
73.6315243569
 20
-160.6930156662
 10
79.1847190498
 20
-158.2125672209
 10
84.6433553192
 20
-155.4209817099
 10
89.9967476284
 20
-152.3237237929
 10
95.2344164604
 20
-148.9268564977
 10
100.3461088326
 20
-145.2370293516
 10
105.3218183671
 20
-141.2614653645
 10
110.1518048788
 20
-137.0079468896
 10
114.8266134423
 20
-132.4848003891
 10
119.3370929003
 20
-127.7008801346
 10
123.6744137775
 20
-122.6655508747
 10
127.8300855646
 20
-117.3886695029
 10
131.7959733389
 20
-111.8805657622
 10
135.5643136888
 20
-106.1520220244
 10
139.1277299112
 20
-100.2142521829
 10
142.4792464514
 20
-94.078879701
 10
145.6123025584
 20
-87.7579148584
 10
148.5207651278
 20
-81.2637312407
 10
151.1989407076
 20
-74.6090415172
 10
153.6415866432
 20
-67.8068725556
 10
155.8439213405
 20
-60.870539921
 10
157.8016336259
 20
-53.8136218103
 10
159.5108911858
 20
-46.6499324722
 10
160.9683480681
 20
-39.3934951648
 10
162.1711512326
 20
-32.058514705
 10
163.1169461356
 20
-24.6593496616
 10
163.8038813391
 20
-17.2104842474
 10
164.2306121353
 20
-9.7264999664
 10
164.3963031785
 20
-2.2220470693
  0
LWPOLYLINE
  5
71
330
1F
100
AcDbEntity
  8
0
  6
Continuous
 62
     7
370
    25
100
AcDbPolyline
 90
       23
 70
   128
 43
0.0
 10
124.6365654978
 20
21.1079925369
 10
123.5760077105
 20
27.5284331082
 10
122.2449046026
 20
33.8706581275
 10
120.6471411782
 20
40.1161569546
 10
118.7873807256
 20
46.2467012577
 10
116.6710512069
 20
52.2443982155
 10
114.3043294156
 20
58.0917427394
 10
111.6941229487
 20
63.7716685648
 10
108.8480500465
 20
69.2675980611
 10
105.7744173569
 20
74.5634906159
 10
102.482195692
 20
79.6438894516
 10
98.9809938454
 20
84.4939667382
 10
95.2810305475
 20
89.0995668702
 10
91.3931046408
 20
93.4472477815
 10
87.3285635621
 20
97.5243201784
 10
83.0992702234
 20
101.3188845745
 10
78.7175683885
 20
104.8198660211
 10
74.1962466458
 20
108.0170464311
 10
69.5485010835
 20
110.9010944018
 10
64.7878967746
 20
113.4635924496
 10
59.9283281857
 20
115.6970615781
 10
54.9839786239
 20
117.5949831058
 10
49.9692788412
 20
119.1518176926
  0
LWPOLYLINE
  5
73
330
1F
100
AcDbEntity
  8
0
  6
Continuous
 62
     7
370
    25
100
AcDbPolyline
 90
       26
 70
   128
 43
0.0
 10
140.1639857747
 20
20.7647087857
 10
139.1842618711
 20
27.6516568282
 10
137.937265574
 20
34.4721671195
 10
136.4260742157
 20
41.2094080323
 10
134.654417108
 20
47.8467534312
 10
132.6266663391
 20
54.3678237025
 10
130.347825984
 20
60.7565261757
 10
127.8235197556
 20
66.9970948371
 10
125.0599771264
 20
73.074129237
 10
122.0640179555
 20
78.9726324948
 10
118.8430356587
 20
84.6780483085
 10
115.4049789629
 20
90.1762968763
 10
111.7583322903
 20
95.453809643
 10
107.9120948205
 20
100.4975627843
 10
103.8757582826
 20
105.2951093468
 10
99.6592835313
 20
109.8346099649
 10
95.2730759657
 20
114.1048620776
 10
90.7279598509
 20
118.0953275743
 10
86.0351516056
 20
121.7961588005
 10
81.2062321228
 20
125.1982228602
 10
76.2531181902
 20
128.2931241537
 10
71.1880330821
 20
131.0732250963
 10
66.0234763945
 20
133.5316649662
 10
60.7721931993
 20
135.6623768357
 10
55.4471425917
 20
137.4601025428
 10
50.0614657096
 20
138.9204056674
  0
LWPOLYLINE
  5
74
330
1F
100
AcDbEntity
  8
0
  6
Continuous
 62
     7
370
    25
100
AcDbPolyline
 90
       26
 70
   128
 43
0.0
 10
10.735257936
 20
139.2721694846
 10
5.4485697479
 20
137.9336545804
 10
0.2225665719
 20
136.2677430487
 10
-4.9302812771
 20
134.278410096
 10
-9.9976780477
 20
131.9704026785
 10
-14.9675318922
 20
129.3492281751
 10
-19.8279837203
 20
126.4211412457
 10
-24.5674354974
 20
123.1931289059
 10
-29.17457792
 20
119.672893855
 10
-33.6384174017
 20
115.8688360957
 10
-37.9483023061
 20
111.7900328896
 10
-42.0939483643
 20
107.4462170975
 10
-46.0654632148
 20
102.8477539545
 10
-49.8533700089
 20
98.0056163363
 10
-53.4486300244
 20
92.9313585762
 10
-56.8426642338
 20
87.6370888936
 10
-60.0273737756
 20
82.1354405012
 10
-62.9951592798
 20
76.4395414603
 10
-65.7389390018
 20
70.5629833537
 10
-68.2521657205
 20
64.5197888539
 10
-70.5288423619
 20
58.324378262
 10
-72.5635363085
 20
51.9915350979
 10
-74.3513923636
 20
45.5363708238
 10
-75.888144336
 20
38.9742887851
 10
-77.1701252203
 20
32.320947455
 10
-78.1942759475
 20
25.59222307
  0
LWPOLYLINE
  5
76
330
1F
100
AcDbEntity
  8
0
  6
Continuous
 62
     7
370
    25
100
AcDbPolyline
 90
       23
 70
   128
 43
0.0
 10
10.6426676096
 20
119.4170638271
 10
5.7437043986
 20
117.9614812442
 10
0.9151528375
 20
116.1775120363
 10
-3.8294614536
 20
114.0701534141
 10
-8.4768479775
 20
111.6453084587
 10
-13.0139885892
 20
108.9097695863
 10
-17.4281739619
 20
105.8711995214
 10
-21.7070391878
 20
102.5381098317
 10
-25.8385984146
 20
98.9198370862
 10
-29.8112784202
 20
95.0265167019
 10
-33.6139510308
 20
90.8690545521
 10
-37.2359642932
 20
86.4590964178
 10
-40.6671723128
 20
81.8089953654
 10
-43.8979636739
 20
76.9317771438
 10
-46.9192883631
 20
71.8411036971
 10
-49.7226831198
 20
66.5512348947
 10
-52.3002951434
 20
61.0769885872
 10
-54.6449040905
 20
55.4336990991
 10
-56.7499422999
 20
49.6371742742
 10
-58.6095131904
 20
43.7036511956
 10
-60.2184077776
 20
37.6497507026
 10
-61.5721192654
 20
31.4924308326
 10
-62.6668556706
 20
25.2489393188
  0
LWPOLYLINE
  5
78
330
1F
100
AcDbEntity
  8
0
  6
Continuous
 62
     7
370
    25
100
AcDbPolyline
 90
       28
 70
   128
 43
0.0
 10
-79.5265922689
 20
-5.9714967423
 10
-79.0767017823
 20
-12.8097812704
 10
-78.3653898759
 20
-19.615875672
 10
-77.394347687
 20
-26.3735985223
 10
-76.1658838592
 20
-33.0668833992
 10
-74.6829190536
 20
-39.6798170814
 10
-72.9489790049
 20
-46.1966773818
 10
-70.9681861392
 20
-52.6019705268
 10
-68.7452497728
 20
-58.8804679926
 10
-66.2854549157
 20
-65.0172427111
 10
-63.594649707
 20
-70.9977045586
 10
-60.6792315105
 20
-76.8076350436
 10
-57.5461317052
 20
-82.4332211116
 10
-54.2027992065
 20
-87.861087985
 10
-50.6571827554
 20
-93.0783309618
 10
-46.9177120216
 20
-98.0725460963
 10
-42.9932775612
 20
-102.8318596893
 10
-38.8932096799
 20
-107.3449565178
 10
-34.6272562504
 20
-111.6011067371
 10
-30.2055595364
 20
-115.5901913902
 10
-25.6386320799
 20
-119.3027264662
 10
-20.9373317077
 20
-122.7298854482
 10
-16.1128357168
 20
-125.8635202982
 10
-11.1766143007
 20
-128.696180829
 10
-6.1404032791
 20
-131.2211324171
 10
-1.0161761958
 20
-133.4323720141
 10
4.1838841478
 20
-135.3246424187
 10
9.4474146575
 20
-136.893444776
  0
LWPOLYLINE
  5
7A
330
1F
100
AcDbEntity
  8
0
  6
Continuous
 62
     7
370
    25
100
AcDbPolyline
 90
       25
 70
   128
 43
0.0
 10
-64.1929920472
 20
-6.3104954754
 10
-63.7067458698
 20
-12.7252963358
 10
-62.9534607386
 20
-19.1021107196
 10
-61.9352633374
 20
-25.4229355253
 10
-60.6550282539
 20
-31.6699257221
 10
-59.1163698636
 20
-37.8254447296
 10
-57.323632126
 20
-43.8721142103
 10
-55.2818763204
 20
-49.7928631318
 10
-52.9968667572
 20
-55.5709759623
 10
-50.4750545038
 20
-61.1901398621
 10
-47.7235591717
 20
-66.6344907378
 10
-44.7501488168
 20
-71.8886580306
 10
-41.563218008
 20
-76.9378081102
 10
-38.171764128
 20
-81.7676861535
 10
-34.5853619713
 20
-86.3646563887
 10
-30.8141367131
 20
-90.7157405926
 10
-26.8687353233
 20
-94.8086547302
 10
-22.760296508
 20
-98.6318436355
 10
-18.5004192627
 20
-102.1745136343
 10
-14.1011301257
 20
-105.4266630166
 10
-9.5748492246
 20
-108.379110274
 10
-4.9343552117
 20
-111.0235200206
 10
-0.1927491875
 20
-113.3524265262
 10
4.6365822872
 20
-115.359254793
 10
9.5400049839
 20
-117.0383391184
  0
LWPOLYLINE
  5
7C
330
1F
100
AcDbEntity
  8
0
  6
Continuous
 62
     7
370
    25
100
AcDbPolyline
 90
       28
 70
   128
 43
0.0
 10
48.7687948369
 20
-138.2804397823
 10
54.1506890266
 20
-137.0627700584
 10
59.4755040354
 20
-135.5071154111
 10
64.7301788706
 20
-133.6172916339
 10
69.9018245833
 20
-131.3979341882
 10
74.9777558827
 20
-128.8544868332
 10
79.9455222516
 20
-125.9931882735
 10
84.7929384854
 20
-122.821056856
 10
89.5081145809
 20
-119.3458733552
 10
94.0794849007
 20
-115.5761618881
 10
98.4958365416
 20
-111.5211690058
 10
102.7463368391
 20
-107.1908410128
 10
106.8205599372
 20
-102.5957995706
 10
110.7085123625
 20
-97.7473156438
 10
114.4006575363
 20
-92.6572818547
 10
117.8879391662
 20
-87.3381833118
 10
121.1618034603
 20
-81.803066986
 10
124.2142201083
 20
-76.0655097085
 10
127.0377019784
 20
-70.1395848682
 10
129.6253234825
 20
-64.0398278922
 10
131.9707375634
 20
-57.7812005926
 10
134.0681912632
 20
-51.3790544669
 10
135.9125398347
 20
-44.8490930435
 10
137.4992593607
 20
-38.2073333628
 10
138.82445785
 20
-31.4700666903
 10
139.8848847846
 20
-24.653818556
 10
140.6779390923
 20
-17.7753082197
 10
141.2016755268
 20
-10.8514076617
  0
LWPOLYLINE
  5
7E
330
1F
100
AcDbEntity
  8
0
  6
Continuous
 62
     7
370
    25
100
AcDbPolyline
 90
       25
 70
   128
 43
0.0
 10
48.8609817053
 20
-118.5118518075
 10
53.8999215787
 20
-117.1738018252
 10
58.871385733
 20
-115.490151787
 10
63.7608017643
 20
-113.4658368241
 10
68.5538377692
 20
-111.1067906283
 10
73.2364443539
 20
-108.4199280585
 10
77.7948958169
 20
-105.4131248723
 10
82.2158303811
 20
-102.0951946403
 10
86.4862893602
 20
-98.4758629118
 10
90.5937551436
 20
-94.5657387069
 10
94.5261878879
 20
-90.3762834195
 10
98.2720608081
 20
-85.9197772215
 10
101.8203939652
 20
-81.209283067
 10
105.1607864508
 20
-76.2586084021
 10
108.2834468741
 20
-71.0822646922
 10
111.1792220626
 20
-65.6954248862
 10
113.839623892
 20
-60.113878941
 10
116.2568541669
 20
-54.3539875381
 10
118.4238274783
 20
-48.4326341269
 10
120.3341919732
 20
-42.3671754359
 10
121.9823479727
 20
-36.1753905962
 10
123.3634643859
 20
-29.8754290276
 10
124.4734928711
 20
-23.4857572384
 10
125.3091797019
 20
-17.0251046963
 10
125.8680753052
 20
-10.5124089286
  0
LWPOLYLINE
  5
9E
330
1F
100
AcDbEntity
  8
0
  6
Continuous
 62
     7
370
    25
100
AcDbPolyline
 90
       73
 70
   128
 43
0.0
 10
-4.0107568465
 20
169.717686406
 10
-8.0654657867
 20
169.5434026936
 10
-13.9527553593
 20
169.0098297245
 10
-19.8127317581
 20
168.1454120769
 10
-25.6339238041
 20
166.9518418891
 10
-31.4049362405
 20
165.4314556308
 10
-37.1144720394
 20
163.5872295294
 10
-42.7513545164
 20
161.4227737441
 10
-48.3045492093
 20
158.9423252988
 10
-53.7631854787
 20
156.1507397877
 10
-59.1165777879
 20
153.0534818707
 10
-64.3542466199
 20
149.6566145756
 10
-69.4659389921
 20
145.9667874295
 10
-74.4416485266
 20
141.9912234424
 10
-79.2716350383
 20
137.7377049675
 10
-83.9464436018
 20
133.214558467
 10
-88.4569230598
 20
128.4306382125
 10
-92.794243937
 20
123.3953089526
 10
-96.9499157241
 20
118.1184275807
 10
-100.9158034984
 20
112.6103238401
 10
-104.6841438483
 20
106.8817801023
 10
-108.2475600707
 20
100.9440102608
 10
-111.5990766109
 20
94.8086377789
 10
-114.7321327179
 20
88.4876729363
 10
-117.6405952873
 20
81.9934893185
 10
-120.3187708671
 20
75.338799595
 10
-122.7614168027
 20
68.5366306334
 10
-124.9637515
 20
61.6002979988
 10
-126.9214637854
 20
54.5433798882
 10
-128.6307213453
 20
47.37969055
 10
-130.0881782276
 20
40.1232532427
 10
-131.2909813921
 20
32.7882727829
 10
-132.2367762951
 20
25.3891077394
 10
-132.9237114986
 20
17.9402423252
 10
-133.3504422948
 20
10.4562580443
 10
-133.516133338
 20
2.9518051471
 10
-133.4204602803
 20
-4.5584260472
 10
-133.0636104062
 20
-12.0597339085
 10
-132.446282266
 20
-19.5374342743
 10
-131.5696843086
 20
-26.976889195
 10
-130.4355325157
 20
-34.3635355883
 10
-129.0460470426
 20
-41.682913747
 10
-127.4039478724
 20
-48.9206956446
 10
-125.5124494913
 20
-56.0627129832
 10
-123.3752545963
 20
-63.0949849284
 10
-120.9965468467
 20
-70.0037454776
 10
-118.3809826747
 20
-76.7754704077
 10
-115.5336821699
 20
-83.3969037491
 10
-112.4602190568
 20
-89.855083735
 10
-109.1666097837
 20
-96.137368175
 10
-105.6593017455
 20
-102.2314592021
 10
-101.9451606624
 20
-108.1254273471
 10
-98.0314571399
 20
-113.8077348904
 10
-93.9258524365
 20
-119.2672584483
 10
-89.6363834663
 20
-124.493310747
 10
-85.171447066
 20
-129.4756615437
 10
-80.5397835585
 20
-134.2045576527
 10
-75.7504596425
 20
-138.6707420379
 10
-70.8128506445
 20
-142.8654719335
 10
-65.7366221659
 20
-146.7805359589
 10
-60.5317111625
 20
-150.4082701923
 10
-55.208306492
 20
-153.7415731736
 10
-49.7768289689
 20
-156.7739198057
 10
-44.2479109655
 20
-159.4993741277
 10
-38.6323755986
 20
-161.9126009347
 10
-32.9412155422
 20
-164.008876222
 10
-27.1855715095
 20
-165.7840964322
 10
-21.376710444
 20
-167.2347864884
 10
-15.5260034638
 20
-168.3581065967
 10
-9.6449036028
 20
-169.1518578052
 10
-3.7449233901
 20
-169.6144863087
 10
2.162387686
 20
-169.7450864902
 10
4.0107568465
 20
-169.717686406
  0
LINE
  5
B6
330
1F
100
AcDbEntity
  8
0
  6
Continuous
 62
     7
370
    25
100
AcDbLine
 10
4.0107568465
 20
-169.717686406
 30
0.0
 11
34.890926687
 21
-168.9879283282
 31
0.0
  0
LINE
  5
B7
330
1F
100
AcDbEntity
  8
0
  6
Continuous
 62
     7
370
    25
100
AcDbLine
 10
26.869412994
 20
170.4474444839
 30
0.0
 11
-4.0107568465
 21
169.717686406
 31
0.0
  0
LINE
  5
B8
330
1F
100
AcDbEntity
  8
0
  6
Continuous
 62
     7
370
    25
100
AcDbLine
 10
23.1861350854
 20
20.6468054943
 30
0.0
 11
38.7583575001
 21
20.3025312472
 31
0.0
  0
LINE
  5
B9
330
1F
100
AcDbEntity
  8
0
  6
Continuous
 62
     7
370
    25
100
AcDbLine
 10
23.0019821809
 20
-18.8430150915
 30
0.0
 11
23.1861350854
 21
20.6468054943
 31
0.0
  0
LINE
  5
BA
330
1F
100
AcDbEntity
  8
0
  6
Continuous
 62
     7
370
    25
100
AcDbLine
 10
23.0019821809
 20
-18.8430150915
 30
0.0
 11
38.5742045956
 21
-19.1872893386
 31
0.0
  0
LINE
  5
BB
330
1F
100
AcDbEntity
  8
0
  6
Continuous
 62
     7
370
    25
100
AcDbLine
 10
38.5742045956
 20
-19.1872893386
 30
0.0
 11
38.7583575001
 21
20.3025312472
 31
0.0
  0
LINE
  5
BC
330
1F
100
AcDbEntity
  8
0
  6
Continuous
 62
     7
370
    25
100
AcDbLine
 10
-20.8387992771
 20
54.7850327899
 30
0.0
 11
-25.6013427764
 21
70.985132429
 31
0.0
  0
LINE
  5
BD
330
1F
100
AcDbEntity
  8
0
  6
Continuous
 62
     7
370
    25
100
AcDbLine
 10
-25.6013427764
 20
70.985132429
 30
0.0
 11
-38.9714485953
 21
74.0020520851
 31
0.0
  0
LINE
  5
BE
330
1F
100
AcDbEntity
  8
0
  6
Continuous
 62
     7
370
    25
100
AcDbLine
 10
-38.9714485953
 20
74.0020520851
 30
0.0
 11
-47.579010915
 21
60.818872102
 31
0.0
  0
LINE
  5
BF
330
1F
100
AcDbEntity
  8
0
  6
Continuous
 62
     7
370
    25
100
AcDbLine
 10
-47.579010915
 20
60.818872102
 30
0.0
 11
-42.8164674157
 21
44.6187724628
 31
0.0
  0
LINE
  5
C0
330
1F
100
AcDbEntity
  8
0
  6
Continuous
 62
     7
370
    25
100
AcDbLine
 10
-42.8164674157
 20
44.6187724628
 30
0.0
 11
-29.4463615967
 21
41.6018528068
 31
0.0
  0
LINE
  5
C1
330
1F
100
AcDbEntity
  8
0
  6
Continuous
 62
     7
370
    25
100
AcDbLine
 10
-29.4463615967
 20
41.6018528068
 30
0.0
 11
-20.8387992771
 21
54.7850327899
 31
0.0
  0
LINE
  5
C2
330
1F
100
AcDbEntity
  8
0
  6
Continuous
 62
     7
370
    25
100
AcDbLine
 10
50.0614657096
 20
138.9204056674
 30
0.0
 11
49.9692788412
 21
119.1518176926
 31
0.0
  0
LINE
  5
C3
330
1F
100
AcDbEntity
  8
0
  6
Continuous
 62
     7
370
    25
100
AcDbLine
 10
124.6365654978
 20
21.1079925369
 30
0.0
 11
140.1639857747
 21
20.7647087857
 31
0.0
  0
LINE
  5
C4
330
1F
100
AcDbEntity
  8
0
  6
Continuous
 62
     7
370
    25
100
AcDbLine
 10
-62.6668556706
 20
25.2489393188
 30
0.0
 11
-78.1942759475
 21
25.59222307
 31
0.0
  0
LINE
  5
C5
330
1F
100
AcDbEntity
  8
0
  6
Continuous
 62
     7
370
    25
100
AcDbLine
 10
10.735257936
 20
139.2721694846
 30
0.0
 11
10.6426676096
 21
119.4170638271
 31
0.0
  0
LINE
  5
C6
330
1F
100
AcDbEntity
  8
0
  6
Continuous
 62
     7
370
    25
100
AcDbLine
 10
9.5400049839
 20
-117.0383391184
 30
0.0
 11
9.4474146575
 21
-136.893444776
 31
0.0
  0
LINE
  5
C7
330
1F
100
AcDbEntity
  8
0
  6
Continuous
 62
     7
370
    25
100
AcDbLine
 10
-64.1929920472
 20
-6.3104954754
 30
0.0
 11
-79.5265922689
 21
-5.9714967423
 31
0.0
  0
LINE
  5
C8
330
1F
100
AcDbEntity
  8
0
  6
Continuous
 62
     7
370
    25
100
AcDbLine
 10
125.8680753052
 20
-10.5124089286
 30
0.0
 11
141.2016755268
 21
-10.8514076617
 31
0.0
  0
LINE
  5
C9
330
1F
100
AcDbEntity
  8
0
  6
Continuous
 62
     7
370
    25
100
AcDbLine
 10
48.8609817053
 20
-118.5118518075
 30
0.0
 11
48.7687948369
 21
-138.2804397823
 31
0.0
  0
LINE
  5
CA
330
1F
100
AcDbEntity
  8
0
  6
Continuous
 62
     7
370
    25
100
AcDbLine
 10
-47.1015311317
 20
-56.5468955466
 30
0.0
 11
-40.0685323825
 21
-72.3493682709
 31
0.0
  0
LINE
  5
CB
330
1F
100
AcDbEntity
  8
0
  6
Continuous
 62
     7
370
    25
100
AcDbLine
 10
-40.0685323825
 20
-72.3493682709
 30
0.0
 11
-25.856616733
 21
-72.6635685455
 31
0.0
  0
LINE
  5
CC
330
1F
100
AcDbEntity
  8
0
  6
Continuous
 62
     7
370
    25
100
AcDbLine
 10
-25.856616733
 20
-72.6635685455
 30
0.0
 11
-18.6776998327
 21
-57.1752960959
 31
0.0
  0
LINE
  5
CD
330
1F
100
AcDbEntity
  8
0
  6
Continuous
 62
     7
370
    25
100
AcDbLine
 10
-18.6776998327
 20
-57.1752960959
 30
0.0
 11
-25.7106985819
 21
-41.3728233717
 31
0.0
  0
LINE
  5
CE
330
1F
100
AcDbEntity
  8
0
  6
Continuous
 62
     7
370
    25
100
AcDbLine
 10
-25.7106985819
 20
-41.3728233717
 30
0.0
 11
-39.9226142313
 21
-41.058623097
 31
0.0
  0
LINE
  5
CF
330
1F
100
AcDbEntity
  8
0
  6
Continuous
 62
     7
370
    25
100
AcDbLine
 10
-39.9226142313
 20
-41.058623097
 30
0.0
 11
-47.1015311317
 21
-56.5468955466
 31
0.0
  0
LINE
  5
D0
330
1F
100
AcDbEntity
  8
0
  6
Continuous
 62
     7
370
    25
100
AcDbLine
 10
18.21895803
 20
-100.1830265016
 30
0.0
 11
25.0769012937
 21
-113.1507695148
 31
0.0
  0
LINE
  5
D1
330
1F
100
AcDbEntity
  8
0
  6
Continuous
 62
     7
370
    25
100
AcDbLine
 10
25.0769012937
 20
-113.1507695148
 30
0.0
 11
37.2719032191
 21
-112.2122142664
 31
0.0
  0
LINE
  5
D2
330
1F
100
AcDbEntity
  8
0
  6
Continuous
 62
     7
370
    25
100
AcDbLine
 10
37.2719032191
 20
-112.2122142664
 30
0.0
 11
42.608961881
 21
-98.3059160048
 31
0.0
  0
LINE
  5
D3
330
1F
100
AcDbEntity
  8
0
  6
Continuous
 62
     7
370
    25
100
AcDbLine
 10
42.608961881
 20
-98.3059160048
 30
0.0
 11
35.7510186173
 21
-85.3381729916
 31
0.0
  0
LINE
  5
D4
330
1F
100
AcDbEntity
  8
0
  6
Continuous
 62
     7
370
    25
100
AcDbLine
 10
35.7510186173
 20
-85.3381729916
 30
0.0
 11
23.5560166919
 21
-86.2767282401
 31
0.0
  0
LINE
  5
D5
330
1F
100
AcDbEntity
  8
0
  6
Continuous
 62
     7
370
    25
100
AcDbLine
 10
23.5560166919
 20
-86.2767282401
 30
0.0
 11
18.21895803
 21
-100.1830265016
 31
0.0
  0
LINE
  5
D6
330
1F
100
AcDbEntity
  8
0
  6
Continuous
 62
     7
370
    25
100
AcDbLine
 10
94.2304751442
 20
-75.6781923229
 30
0.0
 11
105.4139225844
 21
-67.7422347962
 31
0.0
  0
LINE
  5
D7
330
1F
100
AcDbEntity
  8
0
  6
Continuous
 62
     7
370
    25
100
AcDbLine
 10
105.4139225844
 20
-67.7422347962
 30
0.0
 11
105.4883540898
 21
-51.381575063
 31
0.0
  0
LINE
  5
D8
330
1F
100
AcDbEntity
  8
0
  6
Continuous
 62
     7
370
    25
100
AcDbLine
 10
105.4883540898
 20
-51.381575063
 30
0.0
 11
94.3793381548
 21
-42.9568728566
 31
0.0
  0
LINE
  5
D9
330
1F
100
AcDbEntity
  8
0
  6
Continuous
 62
     7
370
    25
100
AcDbLine
 10
94.3793381548
 20
-42.9568728566
 30
0.0
 11
83.1958907146
 21
-50.8928303834
 31
0.0
  0
LINE
  5
DA
330
1F
100
AcDbEntity
  8
0
  6
Continuous
 62
     7
370
    25
100
AcDbLine
 10
83.1958907146
 20
-50.8928303834
 30
0.0
 11
83.1214592093
 21
-67.2534901165
 31
0.0
  0
LINE
  5
DB
330
1F
100
AcDbEntity
  8
0
  6
Continuous
 62
     7
370
    25
100
AcDbLine
 10
83.1214592093
 20
-67.2534901165
 30
0.0
 11
94.2304751442
 21
-75.6781923229
 31
0.0
  0
LINE
  5
DC
330
1F
100
AcDbEntity
  8
0
  6
Continuous
 62
     7
370
    25
100
AcDbLine
 10
107.6783841409
 20
43.4167433265
 30
0.0
 11
109.6276409594
 21
60.9296284788
 31
0.0
  0
LINE
  5
DD
330
1F
100
AcDbEntity
  8
0
  6
Continuous
 62
     7
370
    25
100
AcDbLine
 10
109.6276409594
 20
60.9296284788
 30
0.0
 11
98.6524867228
 21
72.0062192379
 31
0.0
  0
LINE
  5
DE
330
1F
100
AcDbEntity
  8
0
  6
Continuous
 62
     7
370
    25
100
AcDbLine
 10
98.6524867228
 20
72.0062192379
 30
0.0
 11
85.7280756678
 21
65.5699248448
 31
0.0
  0
LINE
  5
DF
330
1F
100
AcDbEntity
  8
0
  6
Continuous
 62
     7
370
    25
100
AcDbLine
 10
85.7280756678
 20
65.5699248448
 30
0.0
 11
83.7788188493
 21
48.0570396925
 31
0.0
  0
LINE
  5
E0
330
1F
100
AcDbEntity
  8
0
  6
Continuous
 62
     7
370
    25
100
AcDbLine
 10
83.7788188493
 20
48.0570396925
 30
0.0
 11
94.7539730859
 21
36.9804489334
 31
0.0
  0
LINE
  5
E1
330
1F
100
AcDbEntity
  8
0
  6
Continuous
 62
     7
370
    25
100
AcDbLine
 10
94.7539730859
 20
36.9804489334
 30
0.0
 11
107.6783841409
 21
43.4167433265
 31
0.0
  0
LINE
  5
E2
330
1F
100
AcDbEntity
  8
0
  6
Continuous
 62
     7
370
    25
100
AcDbLine
 10
43.5346950901
 20
100.2086739327
 30
0.0
 11
37.6569664431
 21
113.8717544138
 31
0.0
  0
LINE
  5
E3
330
1F
100
AcDbEntity
  8
0
  6
Continuous
 62
     7
370
    25
100
AcDbLine
 10
37.6569664431
 20
113.8717544138
 30
0.0
 11
25.4686510785
 21
114.36706789
 31
0.0
  0
LINE
  5
E4
330
1F
100
AcDbEntity
  8
0
  6
Continuous
 62
     7
370
    25
100
AcDbLine
 10
25.4686510785
 20
114.36706789
 30
0.0
 11
19.1580643609
 21
101.1993008851
 31
0.0
  0
LINE
  5
E5
330
1F
100
AcDbEntity
  8
0
  6
Continuous
 62
     7
370
    25
100
AcDbLine
 10
19.1580643609
 20
101.1993008851
 30
0.0
 11
25.0357930079
 21
87.5362204041
 31
0.0
  0
LINE
  5
E6
330
1F
100
AcDbEntity
  8
0
  6
Continuous
 62
     7
370
    25
100
AcDbLine
 10
25.0357930079
 20
87.5362204041
 30
0.0
 11
37.2241083724
 21
87.0409069279
 31
0.0
  0
LINE
  5
E7
330
1F
100
AcDbEntity
  8
0
  6
Continuous
 62
     7
370
    25
100
AcDbLine
 10
37.2241083724
 20
87.0409069279
 30
0.0
 11
43.5346950901
 21
100.2086739327
 31
0.0
  0
LINE
  5
E8
330
1F
100
AcDbEntity
  8
0
  6
Continuous
 62
     7
370
    25
100
AcDbLine
 10
-64.1929920472
 20
-6.3104954754
 30
0.0
 11
-79.4926085396
 21
-6.672054974
 31
0.0
  0
LINE
  5
E9
330
1F
100
AcDbEntity
  8
0
  6
Continuous
 62
     7
370
    25
100
AcDbLine
 10
9.5400049839
 20
-117.0383391184
 30
0.0
 11
-21.3401648566
 21
-117.7680971963
 31
0.0
  0
LINE
  5
EA
330
1F
100
AcDbEntity
  8
0
  6
Continuous
 62
     7
370
    25
100
AcDbLine
 10
10.6426676096
 20
119.4170638271
 30
0.0
 11
-20.2375022309
 21
118.6873057492
 31
0.0
  0
LINE
  5
EB
330
1F
100
AcDbEntity
  8
0
  6
Continuous
 62
     7
370
    25
100
AcDbLine
 10
-25.7106985819
 20
-41.3728233717
 30
0.0
 11
-40.2272560822
 21
-41.7158776733
 31
0.0
  0
LINE
  5
EC
330
1F
100
AcDbEntity
  8
0
  6
Continuous
 62
     7
370
    25
100
AcDbLine
 10
-25.6013427764
 20
70.985132429
 30
0.0
 11
-41.1816564091
 21
70.6169395147
 31
0.0
  0
LINE
  5
ED
330
1F
100
AcDbEntity
  8
0
  6
Continuous
 62
     7
370
    25
100
AcDbLine
 10
-20.8387992771
 20
54.7850327899
 30
0.0
 11
-45.6329146815
 21
54.1990999374
 31
0.0
  0
LINE
  5
EE
330
1F
100
AcDbEntity
  8
0
  6
Continuous
 62
     7
370
    25
100
AcDbLine
 10
-18.6776998327
 20
-57.1752960959
 30
0.0
 11
-46.5289303605
 21
-57.8334744855
 31
0.0
  0
LINE
  5
EF
330
1F
100
AcDbEntity
  8
0
  6
Continuous
 62
     7
370
    25
100
AcDbLine
 10
-21.3401648566
 20
-117.7680971963
 30
0.0
 11
-21.3619324108
 21
-122.4359399918
 31
0.0
  0
LINE
  5
F0
330
1F
100
AcDbEntity
  8
0
  6
Continuous
 62
     7
370
    25
100
AcDbLine
 10
-20.202562547
 20
126.1797851727
 30
0.0
 11
-20.2375022309
 21
118.6873057492
 31
0.0
  0
LINE
  5
F1
330
1F
100
AcDbEntity
  8
0
  6
Continuous
 62
     7
370
    25
100
AcDbLine
 10
37.2719032191
 20
-112.2122142664
 30
0.0
 11
24.7372042105
 21
-112.5084334227
 31
0.0
  0
LINE
  5
F2
330
1F
100
AcDbEntity
  8
0
  6
Continuous
 62
     7
370
    25
100
AcDbLine
 10
38.7583575001
 20
20.3025312472
 30
0.0
 11
23.1828131625
 21
19.9344510405
 31
0.0
  0
LINE
  5
F3
330
1F
100
AcDbEntity
  8
0
  6
Continuous
 62
     7
370
    25
100
AcDbLine
 10
37.6569664431
 20
113.8717544138
 30
0.0
 11
25.0889355087
 21
113.5747475597
 31
0.0
  0
LINE
  5
F4
330
1F
100
AcDbEntity
  8
0
  6
Continuous
 62
     7
370
    25
100
AcDbLine
 10
42.608961881
 20
-98.3059160048
 30
0.0
 11
18.7227295919
 21
-98.8703938251
 31
0.0
  0
LINE
  5
F5
330
1F
100
AcDbEntity
  8
0
  6
Continuous
 62
     7
370
    25
100
AcDbLine
 10
43.5346950901
 20
100.2086739327
 30
0.0
 11
19.8252584538
 21
99.6483741353
 31
0.0
  0
LINE
  5
F6
330
1F
100
AcDbEntity
  8
0
  6
Continuous
 62
     7
370
    25
100
AcDbLine
 10
141.2016755268
 20
-10.8514076617
 30
0.0
 11
125.8212988564
 21
-11.2148756793
 31
0.0
  0
LINE
  5
F7
330
1F
100
AcDbEntity
  8
0
  6
Continuous
 62
     7
370
    25
100
AcDbLine
 10
105.4139225844
 20
-67.7422347962
 30
0.0
 11
84.4201306749
 21
-68.2383586617
 31
0.0
  0
LINE
  5
F8
330
1F
100
AcDbEntity
  8
0
  6
Continuous
 62
     7
370
    25
100
AcDbLine
 10
105.4883540898
 20
-51.381575063
 30
0.0
 11
83.1912700154
 21
-51.9084982406
 31
0.0
  0
LINE
  5
F9
330
1F
100
AcDbEntity
  8
0
  6
Continuous
 62
     7
370
    25
100
AcDbLine
 10
107.6783841409
 20
43.4167433265
 30
0.0
 11
88.8182406071
 21
42.9710416946
 31
0.0
  0
LINE
  5
FA
330
1F
100
AcDbEntity
  8
0
  6
Continuous
 62
     7
370
    25
100
AcDbLine
 10
109.6276409594
 20
60.9296284788
 30
0.0
 11
85.1471997275
 21
60.3511083531
 31
0.0
  0
ARC
  5
FB
330
1F
100
AcDbEntity
  8
0
  6
Continuous
 62
     7
370
    25
100
AcDbCircle
 10
2.8182859834
 20
-39.2713270105
 30
0.0
 40
82.13022389223818
100
AcDbArc
 50
244.2570220714
 51
252.8935381265
  0
ARC
  5
FC
330
1F
100
AcDbEntity
  8
0
  6
Continuous
 62
     7
370
    25
100
AcDbCircle
 10
0.3136744173
 20
40.7565334202
 30
0.0
 40
80.5950131051248
100
AcDbArc
 50
104.7731795378
 51
118.5192329589
  0
ARC
  5
FD
330
1F
100
AcDbEntity
  8
0
  6
Continuous
 62
     7
370
    25
100
AcDbCircle
 10
-8.0857469252
 20
-34.2980238751
 30
0.0
 40
108.6666670059611
100
AcDbArc
 50
301.5801556576
 51
315.2194175923
  0
ARC
  5
FE
330
1F
100
AcDbEntity
  8
0
  6
Continuous
 62
     7
370
    25
100
AcDbCircle
 10
-11.198241841
 20
32.0013917382
 30
0.0
 40
111.0644837898485
100
AcDbArc
 50
47.5712820901
 51
56.5663313588
  0
MTEXT
  5
100
330
1F
100
AcDbEntity
  8
0
  6
Continuous
 62
     7
100
AcDbMText
 10
-133.516133338
 20
-170.7646528819
 30
0.0
 40
4.83362
 41
0.0
 71
     1
 72
     1
  1
Producto SOLIDWORKS Educational.
  7
SLDTEXTSTYLE0
 73
     1
 44
1.0
  0
MTEXT
  5
101
330
1F
100
AcDbEntity
  8
0
  6
Continuous
 62
     7
100
AcDbMText
 10
-133.516133338
 20
-178.0150828819
 30
0.0
 40
4.83362
 41
0.0
 71
     1
 72
     1
  1
Solo para uso en la enseñanza.
  7
SLDTEXTSTYLE0
 73
     1
 44
1.0
  0
ENDSEC
  0
SECTION
  2
OBJECTS
  0
DICTIONARY
  5
C
330
0
100
AcDbDictionary
281
     1
  3
ACAD_GROUP
350
D
  3
ACAD_LAYOUT
350
1A
  3
ACAD_MLINESTYLE
350
17
  3
ACAD_PLOTSETTINGS
350
19
  3
ACAD_PLOTSTYLENAME
350
E
  3
ACAD_SCALELIST
350
47
  3
DWGPROPS
350
102
  0
DICTIONARY
  5
D
102
{ACAD_REACTORS
330
C
102
}
330
C
100
AcDbDictionary
281
     1
  0
DICTIONARY
  5
1A
102
{ACAD_REACTORS
330
C
102
}
330
C
100
AcDbDictionary
281
     1
  3
Layout1
350
1E
  3
Layout2
350
26
  3
Model
350
22
  0
DICTIONARY
  5
17
102
{ACAD_REACTORS
330
C
102
}
330
C
100
AcDbDictionary
281
     1
  3
Standard
350
18
  0
DICTIONARY
  5
19
102
{ACAD_REACTORS
330
C
102
}
330
C
100
AcDbDictionary
281
     1
  0
ACDBDICTIONARYWDFLT
  5
E
102
{ACAD_REACTORS
330
C
102
}
330
C
100
AcDbDictionary
281
     1
  3
Normal
350
F
100
AcDbDictionaryWithDefault
340
F
  0
DICTIONARY
  5
47
102
{ACAD_REACTORS
330
C
102
}
330
C
100
AcDbDictionary
281
     1
  3
A0
350
48
  3
A1
350
49
  3
A2
350
4A
  3
A3
350
4B
  3
A4
350
4C
  3
A5
350
4D
  3
A6
350
4E
  3
A7
350
4F
  3
A8
350
50
  3
A9
350
51
  3
B0
350
52
  3
B1
350
53
  3
B2
350
54
  3
B3
350
55
  3
B4
350
56
  3
B5
350
57
  3
B6
350
58
  0
XRECORD
  5
102
102
{ACAD_REACTORS
330
C
102
}
330
C
100
AcDbXrecord
280
     1
  1
DWGPROPS COOKIE
  2

  3

  4

  6

  7

  8
194213
  9

300
=
301
=
302
=
303
=
304
=
305
=
306
=
307
=
308
=
309
=
 40
0.0
 41
2460760.713036459
 42
2460760.713074433
  1

 90
        0
  0
LAYOUT
  5
1E
102
{ACAD_REACTORS
330
1A
102
}
330
1A
100
AcDbPlotSettings
  1

  2
none_device
  4

  6

 40
0.0
 41
0.0
 42
0.0
 43
0.0
 44
0.0
 45
0.0
 46
0.0
 47
0.0
 48
0.0
 49
0.0
140
0.0
141
0.0
142
1.0
143
1.0
 70
   688
 72
     1
 73
     0
 74
     5
  7

 75
    16
147
1.0
148
0.0
149
0.0
100
AcDbLayout
  1
Layout1
 70
     1
 71
     1
 10
0.0
 20
0.0
 11
420.0
 21
297.0
 12
0.0
 22
0.0
 32
0.0
 14
1.0000000000E+20
 24
1.0000000000E+20
 34
1.0000000000E+20
 15
-1.0000000000E+20
 25
-1.0000000000E+20
 35
-1.0000000000E+20
146
0.0
 13
0.0
 23
0.0
 33
0.0
 16
1.0
 26
0.0
 36
0.0
 17
0.0
 27
1.0
 37
0.0
 76
     0
330
1B
  0
LAYOUT
  5
26
102
{ACAD_REACTORS
330
1A
102
}
330
1A
100
AcDbPlotSettings
  1

  2
none_device
  4

  6

 40
0.0
 41
0.0
 42
0.0
 43
0.0
 44
0.0
 45
0.0
 46
0.0
 47
0.0
 48
0.0
 49
0.0
140
0.0
141
0.0
142
1.0
143
1.0
 70
   688
 72
     1
 73
     0
 74
     5
  7

 75
    16
147
1.0
148
0.0
149
0.0
100
AcDbLayout
  1
Layout2
 70
     1
 71
     2
 10
0.0
 20
0.0
 11
0.0
 21
0.0
 12
0.0
 22
0.0
 32
0.0
 14
0.0
 24
0.0
 34
0.0
 15
0.0
 25
0.0
 35
0.0
146
0.0
 13
0.0
 23
0.0
 33
0.0
 16
1.0
 26
0.0
 36
0.0
 17
0.0
 27
1.0
 37
0.0
 76
     0
330
23
  0
LAYOUT
  5
22
102
{ACAD_REACTORS
330
1A
102
}
330
1A
100
AcDbPlotSettings
  1

  2
none_device
  4
ANSI_A_(11.00_x_8.50_Inches)
  6

 40
6.35
 41
19.05
 42
6.35000508
 43
19.05000254
 44
279.4
 45
215.9
 46
123.6498626658
 47
88.6707658029
 48
0.0
 49
0.0
140
0.0
141
0.0
142
0.0247340007
143
1.0
 70
  1696
 72
     0
 73
     0
 74
     0
  7

 75
     0
147
0.0179189148
148
-1300.4909072572
149
0.0
100
AcDbLayout
  1
Model
 70
     1
 71
     0
 10
0.0
 20
0.0
 11
420.0
 21
297.0
 12
0.0
 22
0.0
 32
0.0
 14
-133.516133338
 24
-169.7450864902
 34
0.0
 15
164.3963031785
 25
170.474844568
 35
0.0
146
0.0
 13
0.0
 23
0.0
 33
0.0
 16
1.0
 26
0.0
 36
0.0
 17
0.0
 27
1.0
 37
0.0
 76
     0
330
1F
331
29
  0
MLINESTYLE
  5
18
102
{ACAD_REACTORS
330
17
102
}
330
17
100
AcDbMlineStyle
  2
Standard
 70
     0
  3

 62
   256
 51
90.0
 52
90.0
 71
     2
 49
0.5
 62
   256
  6
BYLAYER
 49
-0.5
 62
   256
  6
BYLAYER
  0
ACDBPLACEHOLDER
  5
F
102
{ACAD_REACTORS
330
E
102
}
330
E
  0
SCALE
  5
48
102
{ACAD_REACTORS
330
47
102
}
330
47
100
AcDbScale
 70
     0
300
1:1
140
1.0
141
1.0
290
     1
  0
SCALE
  5
49
102
{ACAD_REACTORS
330
47
102
}
330
47
100
AcDbScale
 70
     0
300
1:2
140
1.0
141
2.0
290
     0
  0
SCALE
  5
4A
102
{ACAD_REACTORS
330
47
102
}
330
47
100
AcDbScale
 70
     0
300
1:4
140
1.0
141
4.0
290
     0
  0
SCALE
  5
4B
102
{ACAD_REACTORS
330
47
102
}
330
47
100
AcDbScale
 70
     0
300
1:5
140
1.0
141
5.0
290
     0
  0
SCALE
  5
4C
102
{ACAD_REACTORS
330
47
102
}
330
47
100
AcDbScale
 70
     0
300
1:8
140
1.0
141
8.0
290
     0
  0
SCALE
  5
4D
102
{ACAD_REACTORS
330
47
102
}
330
47
100
AcDbScale
 70
     0
300
1:10
140
1.0
141
10.0
290
     0
  0
SCALE
  5
4E
102
{ACAD_REACTORS
330
47
102
}
330
47
100
AcDbScale
 70
     0
300
1:16
140
1.0
141
16.0
290
     0
  0
SCALE
  5
4F
102
{ACAD_REACTORS
330
47
102
}
330
47
100
AcDbScale
 70
     0
300
1:20
140
1.0
141
20.0
290
     0
  0
SCALE
  5
50
102
{ACAD_REACTORS
330
47
102
}
330
47
100
AcDbScale
 70
     0
300
1:30
140
1.0
141
30.0
290
     0
  0
SCALE
  5
51
102
{ACAD_REACTORS
330
47
102
}
330
47
100
AcDbScale
 70
     0
300
1:40
140
1.0
141
40.0
290
     0
  0
SCALE
  5
52
102
{ACAD_REACTORS
330
47
102
}
330
47
100
AcDbScale
 70
     0
300
1:50
140
1.0
141
50.0
290
     0
  0
SCALE
  5
53
102
{ACAD_REACTORS
330
47
102
}
330
47
100
AcDbScale
 70
     0
300
1:100
140
1.0
141
100.0
290
     0
  0
SCALE
  5
54
102
{ACAD_REACTORS
330
47
102
}
330
47
100
AcDbScale
 70
     0
300
2:1
140
2.0
141
1.0
290
     0
  0
SCALE
  5
55
102
{ACAD_REACTORS
330
47
102
}
330
47
100
AcDbScale
 70
     0
300
4:1
140
4.0
141
1.0
290
     0
  0
SCALE
  5
56
102
{ACAD_REACTORS
330
47
102
}
330
47
100
AcDbScale
 70
     0
300
8:1
140
8.0
141
1.0
290
     0
  0
SCALE
  5
57
102
{ACAD_REACTORS
330
47
102
}
330
47
100
AcDbScale
 70
     0
300
10:1
140
10.0
141
1.0
290
     0
  0
SCALE
  5
58
102
{ACAD_REACTORS
330
47
102
}
330
47
100
AcDbScale
 70
     0
300
100:1
140
100.0
141
1.0
290
     0
  0
ENDSEC
  0
EOF
